<svg width="24" height="24" viewBox="0 0 24 24" fill="none" xmlns="http://www.w3.org/2000/svg">
<circle cx="12" cy="12" r="12" fill="#F93DB8"/>
<g clip-path="url(#clip0_6_2876)">
<path fill-rule="evenodd" clip-rule="evenodd" d="M18.3639 7.40732C18.5513 7.59484 18.6566 7.84915 18.6566 8.11432C18.6566 8.37948 18.5513 8.63379 18.3639 8.82132L10.8685 16.3166C10.7695 16.4157 10.6519 16.4943 10.5224 16.5479C10.393 16.6016 10.2543 16.6292 10.1142 16.6292C9.97409 16.6292 9.83537 16.6016 9.70594 16.5479C9.57651 16.4943 9.45891 16.4157 9.35985 16.3166L5.63585 12.5933C5.54034 12.5011 5.46416 12.3907 5.41175 12.2687C5.35934 12.1467 5.33176 12.0155 5.3306 11.8827C5.32945 11.7499 5.35475 11.6183 5.40503 11.4954C5.45531 11.3725 5.52957 11.2608 5.62346 11.1669C5.71735 11.073 5.829 10.9988 5.9519 10.9485C6.0748 10.8982 6.20648 10.8729 6.33926 10.8741C6.47204 10.8752 6.60326 10.9028 6.72526 10.9552C6.84726 11.0076 6.95761 11.0838 7.04985 11.1793L10.1139 14.2433L16.9492 7.40732C17.0421 7.31439 17.1523 7.24067 17.2737 7.19038C17.3951 7.14008 17.5251 7.1142 17.6565 7.1142C17.7879 7.1142 17.918 7.14008 18.0394 7.19038C18.1607 7.24067 18.271 7.31439 18.3639 7.40732Z" fill="white"/>
</g>
<defs>
<clipPath id="clip0_6_2876">
<rect width="16" height="16" fill="white" transform="translate(4 4)"/>
</clipPath>
</defs>
</svg>
